<?xml version="1.0" encoding="UTF-8" standalone="no"?>
<!-- Created with Inkscape (http://www.inkscape.org/) -->

<svg
   id="svg2211"
   sodipodi:version="0.32"
   inkscape:version="1.2.2 (b0a8486541, 2022-12-01)"
   width="1712.3556"
   height="1770.3822"
   version="1.0"
   sodipodi:docname="m1.svg"
   inkscape:output_extension="org.inkscape.output.svg.inkscape"
   viewBox="0 0 1605.3334 1659.7333"
   xmlns:inkscape="http://www.inkscape.org/namespaces/inkscape"
   xmlns:sodipodi="http://sodipodi.sourceforge.net/DTD/sodipodi-0.dtd"
   xmlns="http://www.w3.org/2000/svg"
   xmlns:svg="http://www.w3.org/2000/svg"
   xmlns:rdf="http://www.w3.org/1999/02/22-rdf-syntax-ns#"
   xmlns:cc="http://creativecommons.org/ns#"
   xmlns:dc="http://purl.org/dc/elements/1.1/">
  <metadata
     id="metadata2216">
    <rdf:RDF>
      <cc:Work
         rdf:about="">
        <dc:format>image/svg+xml</dc:format>
        <dc:type
           rdf:resource="http://purl.org/dc/dcmitype/StillImage" />
      </cc:Work>
    </rdf:RDF>
  </metadata>
  <defs
     id="defs2214">
    <rect
       x="555.74152"
       y="1394.4053"
       width="410.66139"
       height="146.51265"
       id="rect10833" />
  </defs>
  <sodipodi:namedview
     inkscape:window-height="831"
     inkscape:window-width="1534"
     inkscape:pageshadow="2"
     inkscape:pageopacity="0.0"
     guidetolerance="10.0"
     gridtolerance="10.0"
     objecttolerance="10.0"
     borderopacity="1.0"
     bordercolor="#666666"
     pagecolor="#ffffff"
     id="base"
     inkscape:zoom="0.40664797"
     inkscape:cx="945.53526"
     inkscape:cy="775.85533"
     inkscape:window-x="0"
     inkscape:window-y="0"
     inkscape:current-layer="svg2211"
     inkscape:showpageshadow="0"
     inkscape:pagecheckerboard="0"
     inkscape:deskcolor="#d1d1d1"
     showgrid="true"
     inkscape:window-maximized="1">
    <inkscape:grid
       type="xygrid"
       id="grid5708" />
  </sodipodi:namedview>
  <path
     id="path2220"
     style="fill:#000000"
     d="m 675.07874,50.473023 c 0,0 -194.12666,222.196297 -324.1919,230.540777 106.04835,314.69436 85.02316,777.8026 -74.47998,1081.5289 105.65334,-67.4304 214.95295,-163.4745 325.318,-159.6991 C 518.56012,700.06567 589.85845,78.560585 790.14954,319.40369 c 31.78619,64.76428 13.78972,249.90113 10.38025,367.80762 -3.40947,117.90649 -23.54914,176.17211 -68.38623,137.42615 -55.76587,-70.74252 34.5514,236.80844 123.10181,288.77384 3.15269,-205.87665 2.74584,-482.53618 6.62109,-617.66423 3.87525,-135.12804 -7.47972,-171.53094 62.82349,-212.5946 70.30321,-41.06366 160.36525,-44.5528 193.40335,48.11096 33.038,92.66376 12.3437,364.79478 11.3415,480.56397 -1.0022,115.76918 -50.1386,52.2662 -110.592,13.69262 -60.4535,-38.57357 43.5526,244.70548 153.5614,296.07788 1.5828,-101.9284 3.6667,-224.95114 5.4364,-341.9934 11.2536,21.22353 33.7904,34.59093 58.4198,34.65088 36.3746,-6.6e-4 65.8616,-28.56703 65.8612,-63.80494 -6e-4,-35.2372 -29.4873,-63.80244 -65.8612,-63.8031 -23.9109,0.0665 -45.9065,12.68182 -57.4658,32.95899 0.9151,-65.52581 1.5722,-126.14732 1.9299,-180.87891 10.9747,22.01839 33.9731,36.02454 59.2126,36.06079 36.3754,3.6e-4 65.8635,-28.5663 65.8631,-63.80493 -6e-4,-35.23791 -29.4885,-63.80346 -65.8631,-63.8031 -25.0582,0.0453 -47.9191,13.86194 -58.9782,35.64514 0.052,-38.35478 -0.08,-72.77645 -0.6647,-97.04224 -3.1127,-129.1449 -6.8386,-167.5301 -78.6237,-196.97571 -71.785,-29.44561 -138.0744,25.5394 -189.95174,67.82227 -57.34072,65.99786 -57.29548,-65.47516 -134.15955,-71.64368 -48.60353,-3.90054 -118.49086,20.94773 -171.25305,64.51722 20.02727,-109.67215 40.66369,-170.202866 68.77258,-199.030157 z"
     sodipodi:nodetypes="cccccsccszssscccsccccsccsscscc" />
</svg>
